<svg width="76" height="26" viewBox="0 0 76 26" fill="none" xmlns="http://www.w3.org/2000/svg">
<circle cx="3.61182" cy="21.9054" r="2.61182" stroke="#F8F8F8" stroke-width="0.998639"/>
<circle cx="3.61182" cy="14.6077" r="2.61182" stroke="#F8F8F8" stroke-width="0.998639"/>
<circle cx="3.61182" cy="7.38673" r="2.61182" stroke="#F8F8F8" stroke-width="0.998639"/>
<circle cx="10.9097" cy="21.9054" r="2.61182" stroke="#F8F8F8" stroke-width="0.998639"/>
<circle cx="10.9097" cy="14.6077" r="2.61182" stroke="#F8F8F8" stroke-width="0.998639"/>
<circle cx="10.9097" cy="7.38673" r="2.61182" stroke="#F8F8F8" stroke-width="0.998639"/>
<ellipse cx="18.1693" cy="21.9054" rx="2.65023" ry="2.61182" stroke="#F8F8F8" stroke-width="0.998639"/>
<ellipse cx="18.1693" cy="14.6077" rx="2.65023" ry="2.61182" stroke="#F8F8F8" stroke-width="0.998639"/>
<circle cx="19.667" cy="4.77491" r="2.61182" fill="#5974D0" stroke="#5974D0" stroke-width="0.998639"/>
<path d="M3.53516 9.92175V12.0727" stroke="#F8F8F8" stroke-width="1.30591"/>
<path d="M10.9097 9.92175V12.0727" stroke="#F8F8F8" stroke-width="1.30591"/>
<path d="M3.53516 17.2195V19.3704" stroke="#F8F8F8" stroke-width="1.30591"/>
<path d="M5.71973 16.113L8.8663 20.0069" stroke="#F8F8F8" stroke-width="1.30591"/>
<path d="M5.71973 8.83655L8.8663 12.7304" stroke="#F8F8F8" stroke-width="1.30591"/>
<path d="M10.9097 17.2195V19.3704" stroke="#F8F8F8" stroke-width="1.30591"/>
<path d="M8.37451 22.2894L6.2236 22.2894" stroke="#F8F8F8" stroke-width="1.30591"/>
<path d="M15.5952 22.2894L13.5211 22.2894" stroke="#F8F8F8" stroke-width="1.30591"/>
<path d="M15.5952 14.6844L13.5211 14.6844" stroke="#F8F8F8" stroke-width="1.30591"/>
<path d="M18.2075 17.2195V19.3704" stroke="#F8F8F8" stroke-width="1.30591"/>
<path d="M31.2526 7.07139C31.7539 7.07139 32.206 7.15419 32.6088 7.3198C33.0161 7.48093 33.3608 7.71591 33.6427 8.02474C33.9292 8.3291 34.1485 8.69836 34.3007 9.13252C34.4529 9.5622 34.5289 10.0456 34.5289 10.5827C34.5289 11.1198 34.4529 11.6054 34.3007 12.0396C34.1485 12.4737 33.9292 12.843 33.6427 13.1474C33.3608 13.4517 33.0161 13.6867 32.6088 13.8523C32.206 14.0134 31.7539 14.094 31.2526 14.094C30.7469 14.094 30.2903 14.0134 29.883 13.8523C29.4802 13.6867 29.1356 13.4517 28.8491 13.1474C28.5626 12.843 28.3411 12.4737 28.1844 12.0396C28.0323 11.6054 27.9562 11.1198 27.9562 10.5827C27.9562 10.0456 28.0323 9.5622 28.1844 9.13252C28.3411 8.69836 28.5626 8.3291 28.8491 8.02474C29.1356 7.71591 29.4802 7.48093 29.883 7.3198C30.2903 7.15419 30.7469 7.07139 31.2526 7.07139ZM31.2526 13.0735C31.8972 13.0735 32.3783 12.8564 32.6961 12.4223C33.0139 11.9881 33.1728 11.3772 33.1728 10.5894C33.1728 9.80166 33.0139 9.1907 32.6961 8.75655C32.3783 8.31791 31.8972 8.0986 31.2526 8.0986C30.5992 8.0986 30.1113 8.31791 29.789 8.75655C29.4712 9.1907 29.3124 9.80166 29.3124 10.5894C29.3124 11.3772 29.4712 11.9881 29.789 12.4223C30.1113 12.8564 30.5992 13.0735 31.2526 13.0735ZM36.6147 8.12545C36.7624 7.9688 36.9168 7.82557 37.078 7.69577C37.2391 7.56597 37.4092 7.45631 37.5882 7.3668C37.7717 7.2728 37.9664 7.20119 38.1723 7.15195C38.3827 7.09824 38.6065 7.07139 38.8437 7.07139C39.2197 7.07139 39.5486 7.13405 39.8306 7.25938C40.1171 7.3847 40.3565 7.56149 40.549 7.78976C40.7415 8.01356 40.8869 8.28434 40.9854 8.60213C41.0839 8.91991 41.1331 9.27127 41.1331 9.65619V14H39.8172V9.65619C39.8172 9.16832 39.7053 8.79011 39.4815 8.52156C39.2577 8.24854 38.9153 8.11202 38.4543 8.11202C38.1186 8.11202 37.8031 8.19259 37.5077 8.35372C37.2167 8.51037 36.9459 8.72521 36.6953 8.99824V14H35.3861V7.17881H36.1716C36.3551 7.17881 36.4693 7.26609 36.514 7.44065L36.6147 8.12545ZM43.6383 4.09048V14H42.3224V4.09048H43.6383ZM50.8658 7.17881L47.0792 15.9806C47.0389 16.079 46.9852 16.1551 46.9181 16.2088C46.8509 16.2625 46.7525 16.2894 46.6227 16.2894H45.6492L46.8979 13.5703L44.0983 7.17881H45.2396C45.3515 7.17881 45.4388 7.20567 45.5015 7.25938C45.5641 7.31309 45.6089 7.37351 45.6357 7.44065L47.3679 11.536C47.4037 11.639 47.4373 11.7442 47.4686 11.8516C47.5044 11.9545 47.5335 12.0575 47.5559 12.1604C47.5872 12.053 47.6208 11.9478 47.6566 11.8449C47.6924 11.7375 47.7304 11.6323 47.7707 11.5293L49.4424 7.44065C49.4738 7.36456 49.523 7.3019 49.5901 7.25266C49.6573 7.20343 49.7334 7.17881 49.8184 7.17881H50.8658Z" fill="#F8F8F8"/>
<path d="M60.5142 9.17951C60.5142 9.90012 60.3978 10.5625 60.1651 11.1668C59.9368 11.7666 59.6123 12.2858 59.1916 12.7244C58.7708 13.1585 58.2673 13.4965 57.681 13.7382C57.0946 13.9799 56.4434 14.1007 55.7273 14.1007C55.0156 14.1007 54.3644 13.9799 53.7735 13.7382C53.1872 13.4965 52.6837 13.1585 52.263 12.7244C51.8467 12.2858 51.5222 11.7666 51.2895 11.1668C51.0567 10.5625 50.9403 9.90012 50.9403 9.17951C50.9403 8.46338 51.0567 7.80319 51.2895 7.19895C51.5222 6.59471 51.8467 6.07551 52.263 5.64136C52.6837 5.20272 53.1872 4.86256 53.7735 4.62086C54.3644 4.37469 55.0156 4.25161 55.7273 4.25161C56.4434 4.25161 57.0946 4.37469 57.681 4.62086C58.2673 4.86256 58.7708 5.20272 59.1916 5.64136C59.6123 6.07551 59.9368 6.59471 60.1651 7.19895C60.3978 7.80319 60.5142 8.46338 60.5142 9.17951ZM59.0506 9.17951C59.0506 8.60661 58.9722 8.09188 58.8156 7.63535C58.6589 7.17881 58.4351 6.79165 58.1442 6.47386C57.8578 6.15608 57.5086 5.91215 57.0969 5.74206C56.6896 5.57198 56.233 5.48694 55.7273 5.48694C55.2215 5.48694 54.7627 5.57198 54.3509 5.74206C53.9436 5.91215 53.5945 6.15608 53.3036 6.47386C53.0127 6.79165 52.7889 7.17881 52.6322 7.63535C52.4756 8.09188 52.3972 8.60661 52.3972 9.17951C52.3972 9.7569 52.4756 10.2739 52.6322 10.7304C52.7889 11.1825 53.0127 11.5674 53.3036 11.8852C53.5945 12.2029 53.9436 12.4469 54.3509 12.617C54.7627 12.7826 55.2215 12.8654 55.7273 12.8654C56.233 12.8654 56.6896 12.7826 57.0969 12.617C57.5086 12.4469 57.8578 12.2029 58.1442 11.8852C58.4351 11.5674 58.6589 11.1825 58.8156 10.7304C58.9722 10.2739 59.0506 9.7569 59.0506 9.17951Z" fill="#5974D0"/>
<path d="M62.6657 8.12545C62.8134 7.9688 62.9678 7.82557 63.129 7.69577C63.2901 7.56597 63.4602 7.45631 63.6392 7.3668C63.8227 7.2728 64.0174 7.20119 64.2233 7.15195C64.4337 7.09824 64.6575 7.07139 64.8947 7.07139C65.2707 7.07139 65.5996 7.13405 65.8816 7.25938C66.1681 7.3847 66.4075 7.56149 66.6 7.78976C66.7925 8.01356 66.9379 8.28434 67.0364 8.60213C67.1349 8.91991 67.1841 9.27127 67.1841 9.65619V14H65.8682V9.65619C65.8682 9.16832 65.7563 8.79011 65.5325 8.52156C65.3087 8.24854 64.9663 8.11202 64.5053 8.11202C64.1696 8.11202 63.8541 8.19259 63.5587 8.35372C63.2677 8.51037 62.9969 8.72521 62.7463 8.99824V14H61.4371V7.17881H62.2226C62.4061 7.17881 62.5203 7.26609 62.565 7.44065L62.6657 8.12545ZM72.8649 9.83075C72.8649 9.57115 72.8268 9.33169 72.7508 9.11238C72.6791 8.89306 72.5717 8.70284 72.4285 8.54171C72.2853 8.38057 72.1107 8.25525 71.9048 8.16573C71.6989 8.07622 71.4617 8.03146 71.1932 8.03146C70.6426 8.03146 70.2085 8.19035 69.8907 8.50814C69.5774 8.82592 69.3782 9.26679 69.2932 9.83075H72.8649ZM73.9458 13.0265C73.7847 13.2145 73.5989 13.3779 73.3886 13.5166C73.1782 13.6509 72.9544 13.7605 72.7172 13.8456C72.48 13.9306 72.2338 13.9933 71.9787 14.0336C71.728 14.0739 71.4796 14.094 71.2334 14.094C70.7635 14.094 70.3271 14.0157 69.9243 13.859C69.5259 13.6979 69.179 13.4651 68.8836 13.1608C68.5927 12.8519 68.3644 12.4715 68.1988 12.0194C68.0377 11.5629 67.9571 11.0392 67.9571 10.4484C67.9571 9.97398 68.031 9.53311 68.1787 9.1258C68.3264 8.71403 68.5367 8.35596 68.8098 8.0516C69.0873 7.74724 69.4252 7.50778 69.8236 7.33323C70.2219 7.15867 70.6695 7.07139 71.1663 7.07139C71.5826 7.07139 71.9652 7.14077 72.3144 7.27952C72.668 7.41379 72.9723 7.61073 73.2274 7.87033C73.4826 8.12993 73.6817 8.44995 73.825 8.8304C73.9727 9.21084 74.0465 9.645 74.0465 10.1329C74.0465 10.3343 74.0241 10.4708 73.9794 10.5424C73.9346 10.6095 73.8518 10.6431 73.731 10.6431H69.2596C69.273 11.0504 69.3312 11.4062 69.4342 11.7106C69.5371 12.0105 69.6781 12.2611 69.8571 12.4625C70.0406 12.664 70.2577 12.8139 70.5084 12.9124C70.759 13.0108 71.0387 13.0601 71.3476 13.0601C71.6385 13.0601 71.8892 13.0265 72.0995 12.9594C72.3144 12.8922 72.4979 12.8206 72.65 12.7445C72.8067 12.664 72.9365 12.5901 73.0394 12.523C73.1469 12.4558 73.2409 12.4223 73.3214 12.4223C73.4288 12.4223 73.5116 12.4625 73.5698 12.5431L73.9458 13.0265Z" fill="#5974D0"/>
<path d="M47.7413 20.1011C47.7413 20.4633 47.6839 20.7963 47.5692 21.1C47.4544 21.4014 47.2925 21.6612 47.0832 21.8794C46.874 22.0977 46.6221 22.2675 46.3274 22.389C46.0349 22.5082 45.711 22.5678 45.3556 22.5678C45.0001 22.5678 44.6762 22.5082 44.3837 22.389C44.0913 22.2675 43.8404 22.0977 43.6312 21.8794C43.422 21.6612 43.26 21.4014 43.1453 21.1C43.0306 20.7963 42.9732 20.4633 42.9732 20.1011C42.9732 19.7389 43.0306 19.4071 43.1453 19.1057C43.26 18.802 43.422 18.541 43.6312 18.3228C43.8404 18.1024 44.0913 17.9314 44.3837 17.8099C44.6762 17.6884 45.0001 17.6277 45.3556 17.6277C45.711 17.6277 46.0349 17.6884 46.3274 17.8099C46.6221 17.9314 46.874 18.1024 47.0832 18.3228C47.2925 18.541 47.4544 18.802 47.5692 19.1057C47.6839 19.4071 47.7413 19.7389 47.7413 20.1011ZM47.0698 20.1011C47.0698 19.8042 47.0293 19.5376 46.9483 19.3014C46.8673 19.0652 46.7526 18.8661 46.6041 18.7041C46.4556 18.5399 46.2756 18.4139 46.0642 18.3262C45.8527 18.2385 45.6165 18.1946 45.3556 18.1946C45.0968 18.1946 44.8618 18.2385 44.6503 18.3262C44.4388 18.4139 44.2577 18.5399 44.107 18.7041C43.9585 18.8661 43.8438 19.0652 43.7628 19.3014C43.6818 19.5376 43.6414 19.8042 43.6414 20.1011C43.6414 20.3981 43.6818 20.6647 43.7628 20.9009C43.8438 21.1348 43.9585 21.3339 44.107 21.4981C44.2577 21.6601 44.4388 21.785 44.6503 21.8727C44.8618 21.9582 45.0968 22.0009 45.3556 22.0009C45.6165 22.0009 45.8527 21.9582 46.0642 21.8727C46.2756 21.785 46.4556 21.6601 46.6041 21.4981C46.7526 21.3339 46.8673 21.1348 46.9483 20.9009C47.0293 20.6647 47.0698 20.3981 47.0698 20.1011ZM51.2188 21.9976C51.419 21.9976 51.5979 21.9638 51.7553 21.8963C51.9128 21.8288 52.0455 21.7343 52.1535 21.6129C52.2637 21.4914 52.347 21.3463 52.4032 21.1776C52.4617 21.0089 52.491 20.8233 52.491 20.6208V17.6817H53.1422V20.6208C53.1422 20.8997 53.0972 21.1584 53.0072 21.3969C52.9195 21.6354 52.7924 21.8423 52.6259 22.0178C52.4617 22.191 52.2604 22.3271 52.0219 22.4261C51.7834 22.5251 51.5157 22.5746 51.2188 22.5746C50.9219 22.5746 50.6541 22.5251 50.4157 22.4261C50.1772 22.3271 49.9748 22.191 49.8083 22.0178C49.6418 21.8423 49.5136 21.6354 49.4236 21.3969C49.3359 21.1584 49.292 20.8997 49.292 20.6208V17.6817H49.9433V20.6174C49.9433 20.8199 49.9714 21.0055 50.0276 21.1742C50.0861 21.3429 50.1694 21.488 50.2773 21.6095C50.3876 21.731 50.5214 21.8266 50.6789 21.8963C50.8386 21.9638 51.0186 21.9976 51.2188 21.9976ZM58.2602 18.2317H56.6945V22.5172H56.0432V18.2317H54.4741V17.6817H58.2602V18.2317ZM62.396 21.9672V22.5172H59.6526V17.6817H60.3039V21.9672H62.396ZM64.4488 22.5172H63.7942V17.6817H64.4488V22.5172ZM69.3435 21.9841L69.3402 22.5172H66.3606V17.6817H69.3402V18.2148H67.0152V19.8211H68.8981V20.334H67.0152V21.9841H69.3435ZM72.2702 20.0235C72.4591 20.0235 72.6256 20.001 72.7696 19.956C72.9158 19.9088 73.0373 19.8436 73.134 19.7603C73.233 19.6748 73.3072 19.5736 73.3567 19.4566C73.4062 19.3396 73.431 19.2103 73.431 19.0686C73.431 18.7806 73.3365 18.5635 73.1475 18.4173C72.9585 18.2711 72.6751 18.198 72.2972 18.198H71.5818V20.0235H72.2702ZM74.504 22.5172H73.9236C73.8044 22.5172 73.7167 22.4711 73.6604 22.3789L72.4051 20.6512C72.3669 20.5972 72.3253 20.5589 72.2803 20.5364C72.2375 20.5117 72.17 20.4993 72.0778 20.4993H71.5818V22.5172H70.9305V17.6817H72.2972C72.6031 17.6817 72.8674 17.7132 73.0901 17.7762C73.3128 17.8369 73.4962 17.9258 73.6402 18.0427C73.7864 18.1597 73.8944 18.3015 73.9641 18.4679C74.0338 18.6321 74.0687 18.8166 74.0687 19.0213C74.0687 19.1923 74.0417 19.352 73.9877 19.5005C73.9337 19.649 73.855 19.7828 73.7515 19.902C73.6503 20.019 73.5254 20.1191 73.377 20.2024C73.2307 20.2856 73.0643 20.3486 72.8775 20.3913C72.9608 20.4386 73.0328 20.5072 73.0935 20.5972L74.504 22.5172Z" fill="#F8F8F8"/>
</svg>
