<svg width="134" height="45" viewBox="0 0 134 45" fill="none" xmlns="http://www.w3.org/2000/svg">
<circle cx="5.66648" cy="39.0578" r="4.66648" stroke="#020109" stroke-width="1.78424"/>
<circle cx="5.66648" cy="26.0191" r="4.66648" stroke="#020109" stroke-width="1.78424"/>
<circle cx="5.66648" cy="13.1176" r="4.66648" stroke="#020109" stroke-width="1.78424"/>
<circle cx="18.7053" cy="39.0578" r="4.66648" stroke="#020109" stroke-width="1.78424"/>
<circle cx="18.7053" cy="26.0191" r="4.66648" stroke="#020109" stroke-width="1.78424"/>
<circle cx="18.7053" cy="13.1176" r="4.66648" stroke="#020109" stroke-width="1.78424"/>
<ellipse cx="31.6755" cy="39.0578" rx="4.7351" ry="4.66648" stroke="#020109" stroke-width="1.78424"/>
<ellipse cx="31.6755" cy="26.0191" rx="4.7351" ry="4.66648" stroke="#020109" stroke-width="1.78424"/>
<circle cx="34.3515" cy="8.45114" r="4.66648" fill="#5974D0" stroke="#5974D0" stroke-width="1.78424"/>
<path d="M5.5293 17.647V21.49" stroke="#020109" stroke-width="2.33324"/>
<path d="M18.7053 17.647V21.49" stroke="#020109" stroke-width="2.33324"/>
<path d="M5.5293 30.6857V34.5286" stroke="#020109" stroke-width="2.33324"/>
<path d="M9.43286 28.7087L15.0548 35.6658" stroke="#020109" stroke-width="2.33324"/>
<path d="M9.43286 15.708L15.0548 22.6651" stroke="#020109" stroke-width="2.33324"/>
<path d="M18.7053 30.6857V34.5286" stroke="#020109" stroke-width="2.33324"/>
<path d="M14.1763 39.744L10.3333 39.744" stroke="#020109" stroke-width="2.33324"/>
<path d="M27.0771 39.744L23.3714 39.744" stroke="#020109" stroke-width="2.33324"/>
<path d="M27.0771 26.1562L23.3714 26.1562" stroke="#020109" stroke-width="2.33324"/>
<path d="M31.7439 30.6857V34.5286" stroke="#020109" stroke-width="2.33324"/>
<path d="M55.0509 12.6208C55.9466 12.6208 56.7543 12.7688 57.474 13.0647C58.2017 13.3526 58.8175 13.7724 59.3213 14.3242C59.8331 14.868 60.2249 15.5277 60.4968 16.3034C60.7687 17.0711 60.9047 17.9348 60.9047 18.8944C60.9047 19.854 60.7687 20.7217 60.4968 21.4974C60.2249 22.2731 59.8331 22.9328 59.3213 23.4766C58.8175 24.0204 58.2017 24.4402 57.474 24.7361C56.7543 25.024 55.9466 25.1679 55.0509 25.1679C54.1473 25.1679 53.3316 25.024 52.6039 24.7361C51.8842 24.4402 51.2684 24.0204 50.7566 23.4766C50.2448 22.9328 49.849 22.2731 49.5691 21.4974C49.2972 20.7217 49.1613 19.854 49.1613 18.8944C49.1613 17.9348 49.2972 17.0711 49.5691 16.3034C49.849 15.5277 50.2448 14.868 50.7566 14.3242C51.2684 13.7724 51.8842 13.3526 52.6039 13.0647C53.3316 12.7688 54.1473 12.6208 55.0509 12.6208ZM55.0509 23.3446C56.2025 23.3446 57.0622 22.9568 57.6299 22.1811C58.1977 21.4054 58.4816 20.3138 58.4816 18.9064C58.4816 17.4989 58.1977 16.4074 57.6299 15.6317C57.0622 14.848 56.2025 14.4561 55.0509 14.4561C53.8834 14.4561 53.0117 14.848 52.436 15.6317C51.8682 16.4074 51.5843 17.4989 51.5843 18.9064C51.5843 20.3138 51.8682 21.4054 52.436 22.1811C53.0117 22.9568 53.8834 23.3446 55.0509 23.3446ZM64.6313 14.5041C64.8952 14.2242 65.171 13.9683 65.4589 13.7364C65.7468 13.5045 66.0507 13.3086 66.3706 13.1486C66.6985 12.9807 67.0463 12.8528 67.4142 12.7648C67.79 12.6688 68.1899 12.6208 68.6137 12.6208C69.2854 12.6208 69.8732 12.7328 70.377 12.9567C70.8888 13.1806 71.3166 13.4965 71.6605 13.9043C72.0044 14.3042 72.2643 14.788 72.4402 15.3558C72.6161 15.9236 72.7041 16.5513 72.7041 17.239V25H70.353V17.239C70.353 16.3674 70.1531 15.6916 69.7533 15.2118C69.3534 14.724 68.7417 14.4801 67.918 14.4801C67.3182 14.4801 66.7544 14.6241 66.2266 14.9119C65.7068 15.1918 65.223 15.5757 64.7752 16.0635V25H62.4361V12.8128H63.8396C64.1674 12.8128 64.3714 12.9687 64.4513 13.2806L64.6313 14.5041ZM77.18 7.29493V25H74.829V7.29493H77.18ZM90.0932 12.8128L83.3278 28.5386C83.2558 28.7145 83.1599 28.8505 83.0399 28.9465C82.92 29.0424 82.744 29.0904 82.5121 29.0904H80.7728L83.0039 24.2323L78.0019 12.8128H80.0411C80.241 12.8128 80.397 12.8607 80.5089 12.9567C80.6209 13.0527 80.7008 13.1606 80.7488 13.2806L83.8436 20.5977C83.9076 20.7817 83.9676 20.9696 84.0235 21.1615C84.0875 21.3454 84.1395 21.5294 84.1795 21.7133C84.2355 21.5214 84.2954 21.3334 84.3594 21.1495C84.4234 20.9576 84.4914 20.7697 84.5633 20.5857L87.5502 13.2806C87.6061 13.1446 87.6941 13.0327 87.8141 12.9447C87.934 12.8568 88.07 12.8128 88.2219 12.8128H90.0932Z" fill="#020109"/>
<path d="M107.332 16.3874C107.332 17.6749 107.124 18.8584 106.708 19.938C106.3 21.0096 105.72 21.9372 104.969 22.7209C104.217 23.4966 103.317 24.1004 102.27 24.5322C101.222 24.964 100.059 25.1799 98.7791 25.1799C97.5076 25.1799 96.344 24.964 95.2885 24.5322C94.2409 24.1004 93.3412 23.4966 92.5895 22.7209C91.8458 21.9372 91.266 21.0096 90.8502 19.938C90.4344 18.8584 90.2264 17.6749 90.2264 16.3874C90.2264 15.1079 90.4344 13.9283 90.8502 12.8488C91.266 11.7692 91.8458 10.8415 92.5895 10.0658C93.3412 9.28215 94.2409 8.67439 95.2885 8.24256C96.344 7.80273 97.5076 7.58282 98.7791 7.58282C100.059 7.58282 101.222 7.80273 102.27 8.24256C103.317 8.67439 104.217 9.28215 104.969 10.0658C105.72 10.8415 106.3 11.7692 106.708 12.8488C107.124 13.9283 107.332 15.1079 107.332 16.3874ZM104.717 16.3874C104.717 15.3638 104.577 14.4441 104.297 13.6284C104.017 12.8128 103.617 12.121 103.097 11.5533C102.586 10.9855 101.962 10.5497 101.226 10.2458C100.498 9.94189 99.6827 9.78995 98.7791 9.78995C97.8754 9.78995 97.0558 9.94189 96.32 10.2458C95.5923 10.5497 94.9686 10.9855 94.4488 11.5533C93.929 12.121 93.5291 12.8128 93.2493 13.6284C92.9694 14.4441 92.8294 15.3638 92.8294 16.3874C92.8294 17.419 92.9694 18.3426 93.2493 19.1583C93.5291 19.966 93.929 20.6537 94.4488 21.2215C94.9686 21.7893 95.5923 22.2251 96.32 22.529C97.0558 22.8249 97.8754 22.9728 98.7791 22.9728C99.6827 22.9728 100.498 22.8249 101.226 22.529C101.962 22.2251 102.586 21.7893 103.097 21.2215C103.617 20.6537 104.017 19.966 104.297 19.1583C104.577 18.3426 104.717 17.419 104.717 16.3874Z" fill="#5974D0"/>
<path d="M111.176 14.5041C111.44 14.2242 111.716 13.9683 112.004 13.7364C112.291 13.5045 112.595 13.3086 112.915 13.1486C113.243 12.9807 113.591 12.8528 113.959 12.7648C114.335 12.6688 114.734 12.6208 115.158 12.6208C115.83 12.6208 116.418 12.7328 116.922 12.9567C117.433 13.1806 117.861 13.4965 118.205 13.9043C118.549 14.3042 118.809 14.788 118.985 15.3558C119.161 15.9236 119.249 16.5513 119.249 17.239V25H116.898V17.239C116.898 16.3674 116.698 15.6916 116.298 15.2118C115.898 14.724 115.286 14.4801 114.463 14.4801C113.863 14.4801 113.299 14.6241 112.771 14.9119C112.251 15.1918 111.768 15.5757 111.32 16.0635V25H108.981V12.8128H110.384C110.712 12.8128 110.916 12.9687 110.996 13.2806L111.176 14.5041ZM129.398 17.5509C129.398 17.0871 129.33 16.6593 129.194 16.2674C129.067 15.8756 128.875 15.5357 128.619 15.2478C128.363 14.9599 128.051 14.736 127.683 14.5761C127.315 14.4161 126.891 14.3362 126.412 14.3362C125.428 14.3362 124.652 14.6201 124.084 15.1878C123.525 15.7556 123.169 16.5433 123.017 17.5509H129.398ZM131.33 23.2607C131.042 23.5965 130.71 23.8884 130.334 24.1363C129.958 24.3762 129.558 24.5722 129.135 24.7241C128.711 24.876 128.271 24.988 127.815 25.06C127.367 25.1319 126.923 25.1679 126.484 25.1679C125.644 25.1679 124.864 25.028 124.144 24.7481C123.433 24.4602 122.813 24.0444 122.285 23.5006C121.765 22.9488 121.358 22.2691 121.062 21.4614C120.774 20.6457 120.63 19.7101 120.63 18.6545C120.63 17.8068 120.762 17.0191 121.026 16.2914C121.29 15.5557 121.665 14.9159 122.153 14.3722C122.649 13.8284 123.253 13.4005 123.965 13.0887C124.676 12.7768 125.476 12.6208 126.364 12.6208C127.107 12.6208 127.791 12.7448 128.415 12.9927C129.047 13.2326 129.59 13.5845 130.046 14.0483C130.502 14.5121 130.858 15.0839 131.114 15.7636C131.378 16.4433 131.51 17.219 131.51 18.0907C131.51 18.4506 131.47 18.6945 131.39 18.8224C131.31 18.9424 131.162 19.0023 130.946 19.0023H122.957C122.981 19.7301 123.085 20.3658 123.269 20.9096C123.453 21.4454 123.705 21.8932 124.025 22.2531C124.352 22.6129 124.74 22.8808 125.188 23.0568C125.636 23.2327 126.136 23.3207 126.687 23.3207C127.207 23.3207 127.655 23.2607 128.031 23.1407C128.415 23.0208 128.743 22.8928 129.015 22.7569C129.294 22.6129 129.526 22.481 129.71 22.361C129.902 22.2411 130.07 22.1811 130.214 22.1811C130.406 22.1811 130.554 22.2531 130.658 22.397L131.33 23.2607Z" fill="#5974D0"/>
<path d="M84.5111 36.4075C84.5111 37.0546 84.4086 37.6495 84.2036 38.1921C83.9986 38.7307 83.7092 39.1949 83.3354 39.5848C82.9617 39.9746 82.5115 40.2781 81.985 40.4951C81.4624 40.7082 80.8837 40.8147 80.2486 40.8147C79.6136 40.8147 79.0348 40.7082 78.5123 40.4951C77.9898 40.2781 77.5416 39.9746 77.1678 39.5848C76.794 39.1949 76.5046 38.7307 76.2996 38.1921C76.0947 37.6495 75.9922 37.0546 75.9922 36.4075C75.9922 35.7604 76.0947 35.1675 76.2996 34.629C76.5046 34.0864 76.794 33.6201 77.1678 33.2302C77.5416 32.8363 77.9898 32.5309 78.5123 32.3138C79.0348 32.0968 79.6136 31.9883 80.2486 31.9883C80.8837 31.9883 81.4624 32.0968 81.985 32.3138C82.5115 32.5309 82.9617 32.8363 83.3354 33.2302C83.7092 33.6201 83.9986 34.0864 84.2036 34.629C84.4086 35.1675 84.5111 35.7604 84.5111 36.4075ZM83.3113 36.4075C83.3113 35.877 83.239 35.4007 83.0943 34.9786C82.9496 34.5566 82.7446 34.2009 82.4793 33.9115C82.2141 33.6181 81.8925 33.393 81.5147 33.2363C81.1369 33.0795 80.7149 33.0011 80.2486 33.0011C79.7864 33.0011 79.3664 33.0795 78.9886 33.2363C78.6107 33.393 78.2872 33.6181 78.0179 33.9115C77.7526 34.2009 77.5476 34.5566 77.4029 34.9786C77.2583 35.4007 77.1859 35.877 77.1859 36.4075C77.1859 36.9381 77.2583 37.4143 77.4029 37.8364C77.5476 38.2544 77.7526 38.6101 78.0179 38.9035C78.2872 39.1929 78.6107 39.416 78.9886 39.5727C79.3664 39.7254 79.7864 39.8018 80.2486 39.8018C80.7149 39.8018 81.1369 39.7254 81.5147 39.5727C81.8925 39.416 82.2141 39.1929 82.4793 38.9035C82.7446 38.6101 82.9496 38.2544 83.0943 37.8364C83.239 37.4143 83.3113 36.9381 83.3113 36.4075ZM90.7243 39.7958C91.082 39.7958 91.4016 39.7355 91.6829 39.6149C91.9643 39.4943 92.2014 39.3255 92.3943 39.1085C92.5913 38.8914 92.74 38.6322 92.8405 38.3307C92.945 38.0293 92.9972 37.6977 92.9972 37.336V32.0847H94.1608V37.336C94.1608 37.8344 94.0804 38.2966 93.9197 38.7226C93.7629 39.1487 93.5358 39.5185 93.2384 39.832C92.945 40.1414 92.5853 40.3846 92.1592 40.5615C91.7332 40.7383 91.2549 40.8267 90.7243 40.8267C90.1938 40.8267 89.7155 40.7383 89.2894 40.5615C88.8634 40.3846 88.5016 40.1414 88.2042 39.832C87.9068 39.5185 87.6777 39.1487 87.5169 38.7226C87.3602 38.2966 87.2818 37.8344 87.2818 37.336V32.0847H88.4454V37.3299C88.4454 37.6917 88.4956 38.0233 88.5961 38.3247C88.7006 38.6262 88.8493 38.8854 89.0422 39.1025C89.2392 39.3195 89.4783 39.4903 89.7597 39.6149C90.0451 39.7355 90.3666 39.7958 90.7243 39.7958ZM103.305 33.0675H100.508V40.7242H99.3439V33.0675H96.5405V32.0847H103.305V33.0675ZM110.694 39.7415V40.7242H105.793V32.0847H106.956V39.7415H110.694ZM114.362 40.7242H113.192V32.0847H114.362V40.7242ZM123.107 39.7717L123.101 40.7242H117.778V32.0847H123.101V33.0373H118.947V35.9071H122.311V36.8235H118.947V39.7717H123.107ZM128.336 36.2688C128.674 36.2688 128.971 36.2286 129.228 36.1483C129.49 36.0639 129.707 35.9473 129.88 35.7986C130.056 35.6458 130.189 35.465 130.278 35.256C130.366 35.047 130.41 34.8159 130.41 34.5626C130.41 34.0482 130.241 33.6603 129.904 33.3991C129.566 33.1378 129.06 33.0072 128.384 33.0072H127.106V36.2688H128.336ZM132.327 40.7242H131.29C131.077 40.7242 130.921 40.6418 130.82 40.4771L128.577 37.3902C128.509 37.2938 128.435 37.2254 128.354 37.1852C128.278 37.141 128.157 37.1189 127.993 37.1189H127.106V40.7242H125.943V32.0847H128.384C128.931 32.0847 129.403 32.141 129.801 32.2535C130.199 32.3621 130.527 32.5208 130.784 32.7298C131.045 32.9388 131.238 33.1921 131.363 33.4895C131.487 33.7829 131.55 34.1125 131.55 34.4782C131.55 34.7837 131.501 35.0691 131.405 35.3343C131.308 35.5996 131.168 35.8388 130.983 36.0518C130.802 36.2608 130.579 36.4397 130.314 36.5884C130.052 36.7371 129.755 36.8496 129.421 36.926C129.57 37.0104 129.699 37.133 129.807 37.2938L132.327 40.7242Z" fill="#020109"/>
</svg>
