<svg width="628" height="859" viewBox="0 0 628 859" fill="none" xmlns="http://www.w3.org/2000/svg">
<path d="M629 -1H0V859H629V-1Z" fill="black"/>
<g opacity="0.457612">
<path opacity="0.120864" d="M964.354 168.649L-351.231 828.38L841.874 980.334L964.354 168.649Z" fill="#3F5FCA"/>
<path opacity="0.165063" d="M513.16 759.945L143.835 966.855L-96.5215 915.21L-103.011 855.834L107.344 758.437L513.16 759.945Z" fill="#3F5FCA"/>
</g>
<path d="M518.665 751.74C518.665 748.713 516.894 746.256 514.709 746.256H114.293C112.107 746.256 110.335 748.713 110.335 751.74V755.4C110.335 758.432 112.107 760.884 114.293 760.884H514.709C516.894 760.884 518.665 758.432 518.665 755.4V751.74Z" fill="#163398"/>
<path d="M477.087 721.944H151.913C148.588 721.944 143.785 723.627 141.186 725.7L115.042 746.571C112.441 748.643 113.03 750.326 116.355 750.326H512.644C515.969 750.326 516.558 748.643 513.959 746.571L487.815 725.7C485.215 723.627 480.412 721.944 477.087 721.944Z" fill="#5974D0" stroke="#163398" stroke-width="6" stroke-miterlimit="10" stroke-linecap="round" stroke-linejoin="round"/>
<path opacity="0.0750973" d="M151.913 721.944C148.588 721.944 143.785 723.627 141.186 725.7L115.042 746.571C112.441 748.643 113.03 750.326 116.355 750.326H512.644C515.969 750.326 516.558 748.643 513.959 746.571L151.913 721.944Z" fill="white"/>
<path opacity="0.71137" d="M484.557 349.059C484.557 255.603 408.828 179.842 315.412 179.842C221.996 179.842 146.268 255.603 146.268 349.059C146.268 442.515 221.996 518.276 315.412 518.276C408.828 518.276 484.557 442.515 484.557 349.059Z" fill="url(#paint0_linear_1036_211)"/>
<path opacity="0.71137" d="M518.665 291.16C518.665 213.685 455.886 150.88 378.445 150.88C378.362 150.88 377.974 261.628 377.889 286.319C377.883 287.984 377.879 289.258 377.876 290.08C377.874 290.787 377.872 291.16 377.872 291.16C377.872 291.16 403.085 291.215 432.173 291.255C437.836 291.263 518.665 291.312 518.665 291.16Z" fill="url(#paint1_linear_1036_211)"/>
<path opacity="0.71137" d="M309.876 274.974C309.876 215.462 261.653 167.218 202.167 167.218C167.162 167.218 136.058 183.923 116.385 209.8C102.627 227.897 94.4549 250.482 94.4549 274.974C94.4549 334.486 142.68 382.73 202.167 382.73C261.653 382.73 309.876 334.486 309.876 274.974Z" fill="url(#paint2_linear_1036_211)"/>
<path opacity="0.33245" d="M379.464 454.879C398.777 488.889 441.992 500.796 475.987 481.474C509.982 462.153 521.884 418.92 502.571 384.911C483.258 350.901 440.043 338.994 406.048 358.315C372.053 377.637 360.151 420.87 379.464 454.879Z" fill="url(#paint3_linear_1036_211)"/>
<path d="M441.02 295.653H375.136V391.035H441.02V295.653Z" fill="url(#paint4_linear_1036_211)"/>
<path d="M333.634 272.161H221.141V343.344H333.634V272.161Z" fill="#26335C"/>
<path d="M340.671 230.752C340.671 223.204 334.553 217.084 327.007 217.084C319.461 217.084 313.344 223.204 313.344 230.752C313.344 238.302 319.461 244.422 327.007 244.422C334.553 244.422 340.671 238.302 340.671 230.752Z" fill="#3F5FCA"/>
<path d="M468.346 254.849C468.346 249.312 463.858 244.823 458.323 244.823C452.788 244.823 448.301 249.312 448.301 254.849C448.301 260.387 452.788 264.876 458.323 264.876C463.858 264.876 468.346 260.387 468.346 254.849Z" fill="#26335C"/>
<path d="M489.167 409.557C489.167 405.197 485.634 401.662 481.276 401.662C476.917 401.662 473.385 405.197 473.385 409.557C473.385 413.917 476.917 417.451 481.276 417.451C485.634 417.451 489.167 413.917 489.167 409.557Z" fill="#344FA7"/>
<path d="M226.257 373.394C226.257 360.877 216.115 350.73 203.603 350.73C191.092 350.73 180.949 360.877 180.949 373.394C180.949 385.911 191.092 396.058 203.603 396.058C216.115 396.058 226.257 385.911 226.257 373.394Z" fill="#344FA7"/>
<path d="M315.96 481.209C315.96 481.209 300.627 484.23 292.803 512.588C291.273 518.126 291.258 519.445 290.535 523.37C290.284 524.729 279.811 523.47 279.644 524.654C276.16 549.435 299.699 542.608 302.941 536.72C306.786 529.738 315.96 481.209 315.96 481.209Z" fill="#2B49AF"/>
<path d="M276.357 521.303C276.357 521.303 272.391 512.513 271.29 518.141C271.29 518.141 263.237 512.008 261.767 512.068C260.297 512.123 267.758 521.183 274.334 522.866C280.91 524.549 276.357 521.303 276.357 521.303Z" fill="#EBD3C5"/>
<path d="M284.988 523.37C284.988 522.242 282.181 522.232 281.216 522.232C278.818 522.232 276.809 523.31 274.681 524.554C271.96 526.147 273.192 540.97 275.364 541.055C277.291 541.125 282.49 542.683 284.621 540.665C286.406 538.972 284.988 523.37 284.988 523.37Z" fill="#223C93"/>
<path d="M389.628 695.041C389.628 695.041 401.132 702.772 402.892 708.575C402.892 708.575 402.4 716.246 386.332 728.642C370.263 741.032 361.965 746.341 353.414 735.718C344.863 725.096 359.604 714.923 371.794 712.011C372.934 711.736 389.628 695.041 389.628 695.041Z" fill="#2B49AF"/>
<path d="M290.642 712.91C290.642 712.91 295.9 730.14 288.368 734.145C282.659 737.187 268.35 733.441 262.999 732.932C258.981 732.547 245.687 736.073 239.306 732.947C233.353 730.03 233.447 727.358 233.474 721.02C233.532 707.381 251.385 708.785 262.682 714.213C263.739 714.718 290.642 712.91 290.642 712.91Z" fill="#2B49AF"/>
<path d="M404.167 709.773C404.167 709.773 401.837 703.201 400.172 704.984C400.172 704.984 385.683 722.009 383.22 724.237C380.756 726.464 366.137 740.233 359.246 740.478C359.246 740.478 362.079 744.973 363.874 744.323C365.669 743.669 372.849 745.087 396.672 719.692L404.167 709.773Z" fill="#3F5FCA"/>
<path d="M291.352 730.155C291.352 730.155 292.399 735.599 290.675 736.537C290.675 736.537 279.85 740.797 262.982 735.144C262.982 735.144 257.185 735.279 252.572 736.872C247.959 738.46 233.602 737.297 233.067 732.582C232.531 727.867 232.905 725.875 234.442 727.818C236.374 730.26 238.837 732.972 248.182 731.978C257.527 730.984 263.204 729.176 271.354 731.618C279.503 734.06 291.069 731.289 291.352 730.155Z" fill="#3F5FCA"/>
<path d="M287.94 538.303L287.347 528.984L257.615 509.841L257.419 517.982L287.94 538.303Z" fill="#5974D0" stroke="#163395" stroke-width="3" stroke-miterlimit="10" stroke-linejoin="round"/>
<path d="M289.738 535.261C289.738 535.261 273.964 520.514 274.879 525.797C275.794 531.081 278.906 531.246 279.616 532.525C280.326 533.808 269.136 525.218 268.048 524.784C266.96 524.349 267.197 541.944 287.587 543.742C307.978 545.544 291.217 536.001 289.738 535.261Z" fill="#EBD3C5"/>
<path d="M257.098 509.606C257.098 509.606 255.603 517.028 256.222 518.641C256.841 520.254 273.41 530.762 276.263 532.345C277.561 533.064 280.887 533.224 279.155 531.995C279.085 531.945 277.465 530.762 277.465 530.762C277.465 530.762 271.115 526.562 270.515 526.182C265.242 522.866 257.563 518.156 257.563 518.156L257.098 509.606Z" fill="#163395"/>
<path d="M293.067 560.667C293.067 560.667 252.409 697.792 252.929 706.827C253.448 715.861 293.15 721.155 293.89 714.848C294.629 708.54 324.359 585.703 323.804 572.773C323.248 559.848 294.598 552.032 293.067 560.667Z" fill="#253158"/>
<path d="M349.243 550.743C349.243 550.743 350.041 616.527 350.591 640.539C350.591 640.539 388.646 688.408 389.829 693.298C391.013 698.187 375.798 722.833 361.474 719.357C347.149 715.881 318.463 671.982 310.769 646.857C306.557 633.098 303.272 557.965 303.272 557.965L349.243 550.743Z" fill="#303F74"/>
<path d="M299.646 441.58C299.646 441.58 295.076 464.199 305.947 470.228C308.63 471.716 311.186 472.008 316.222 470.917L317.736 483.084C317.736 483.084 319.584 486.717 330.554 484.383C330.554 484.383 329.246 468.678 328.727 462.455C328.209 456.231 328.48 459.488 328.48 459.488C328.48 459.488 338.078 459.564 338.535 453.209C339.147 444.708 332.373 440.886 326.397 446.64C326.397 446.64 323.908 448.129 323.811 450.096C323.71 452.162 323.678 443.363 319.357 440.001C319.357 440.001 300.576 443.288 299.646 441.58Z" fill="#EBD3C5"/>
<path d="M299.646 441.58C299.646 441.58 295.076 464.199 305.947 470.228C308.63 471.716 311.186 472.008 316.222 470.917L317.736 483.084C317.736 483.084 319.584 486.717 330.554 484.383C330.554 484.383 329.246 468.678 328.727 462.455C328.209 456.231 328.48 459.488 328.48 459.488C328.48 459.488 338.078 459.564 338.535 453.209C339.147 444.708 332.373 440.886 326.397 446.64C326.397 446.64 323.908 448.129 323.811 450.096C323.71 452.162 323.678 443.363 319.357 440.001C319.357 440.001 300.576 443.288 299.646 441.58Z" fill="url(#paint5_linear_1036_211)"/>
<path d="M297.885 452.541C297.885 452.541 295.618 437.649 306.019 432.182C310.338 429.911 314.793 427.31 325.376 430.454C325.376 430.454 338.574 431.658 340.04 449.578C340.508 455.296 335.67 459.296 332.967 462.583C330.023 466.164 329.299 468.94 329.299 468.94C329.299 468.94 328.563 459.128 328.355 459.051C327.592 458.766 335.893 459.354 337.307 452.648C338.088 448.948 334.835 444.554 329.494 445.801C326.846 446.419 324.099 448.147 325.378 454.559C325.428 454.81 323.62 453.39 322.381 451.784C321.141 450.179 320.42 448.137 320.42 448.137L320.57 450.153L319.524 450.418L318.782 446.062L319.25 450.326L316.222 450.69L315.96 445.106C315.96 445.106 316.255 450.738 315.699 450.734C314.384 450.723 309.986 451.216 309.986 451.216L309.66 448.424C309.66 448.424 309.1 451.221 308.535 451.276C308.535 451.276 308.553 451.381 306.072 451.619L305.63 446.748L305.748 451.603C305.407 451.636 304.65 451.69 304.65 451.69L304.273 448.218L304.468 451.727C304.239 451.749 303.585 451.791 303.585 451.791L303.272 449.714V451.842C303.272 451.842 302.709 451.956 301.299 452.091L300.949 448.937L301.019 452.127C301.019 452.127 299.964 452.256 299.569 452.294L299.347 450.254C299.347 450.254 299.215 452.361 299.049 452.377C298.914 452.39 298.398 452.528 298.266 452.535L298.215 451.996L298.096 452.529C297.97 452.536 297.885 452.541 297.885 452.541Z" fill="#303F74"/>
<path d="M330.357 480.259C330.357 480.259 322.309 485.936 317.184 480.094C317.184 480.094 303.273 481.209 298.106 511.744C296.613 520.564 288.882 561.022 291.011 563.903C293.14 566.78 331.161 574.751 348.684 562.045C356.357 556.482 354.38 520.419 348.747 500.232C346.583 492.483 343.197 482.365 330.357 480.259Z" fill="#5974D0"/>
<path opacity="0.389057" d="M286.608 529.483C286.608 529.483 286.598 538.223 289.023 539.382C295.429 542.438 327.439 546.054 335.853 524.774C337.67 520.179 324.075 433.541 298.257 442.023C298.257 442.023 259.99 506.855 258.406 511.289L258.247 517.592C258.247 517.592 276.187 529.558 276.322 529.618C276.358 529.633 275.852 529.014 275.434 528.05C275.094 527.266 274.936 526.182 274.903 525.713C274.803 524.309 276.035 524.654 276.241 524.769C283.284 528.714 286.868 532.744 286.868 532.744L286.608 529.483Z" fill="url(#paint6_linear_1036_211)"/>
<path d="M330.02 496.424C331.187 493.446 343.33 482.957 348.747 503.209C354.164 523.46 334.561 575.48 288.113 547.697C287.969 547.612 287.783 544.526 288.176 541.12C288.63 537.174 289.857 532.799 292.818 532.14C298.335 530.911 318.34 533.703 318.34 533.703C318.34 533.703 329.262 498.356 330.02 496.424Z" fill="#3F5FCA"/>
<path d="M301.146 531.88C297.619 528.814 294.306 529.363 290.642 530.187C287.3 530.936 283.433 547.982 285.632 548.895C287.582 549.705 292.377 553.41 295.26 551.957C297.677 550.743 301.146 531.88 301.146 531.88Z" fill="#344EA6"/>
<g opacity="0.691744">
<path opacity="0.539171" d="M481.18 -1V401.209M481.18 417.543V509.841C481.18 509.841 480.242 518.541 483.89 522.471C487.537 526.402 495.77 525.568 495.77 525.568L674.047 525.782" stroke="#6D8EFF" stroke-width="2" stroke-miterlimit="10" stroke-linejoin="round"/>
<path opacity="0.539171" d="M458.216 -1V243.863M458.216 266.245V518.471" stroke="#6D8EFF" stroke-width="2" stroke-miterlimit="10" stroke-linejoin="round"/>
<path opacity="0.539171" d="M470.061 -1V54.3272V156.57" stroke="#6D8EFF" stroke-width="2" stroke-miterlimit="10" stroke-linejoin="round" stroke-dasharray="12 12"/>
<path opacity="0.539171" d="M393.819 -1V295.569" stroke="#6D8EFF" stroke-width="2" stroke-miterlimit="10" stroke-linejoin="round"/>
<path opacity="0.539171" d="M393.819 391.089V590.927C393.819 590.927 393.868 598.333 390.642 601.964C387.415 605.6 380.912 605.455 380.912 605.455L278.761 606.044C278.761 606.044 271.548 604.945 267.991 601.01C264.434 597.07 264.533 590.282 264.533 590.282V525.783" stroke="#6D8EFF" stroke-width="2" stroke-miterlimit="10" stroke-linejoin="round"/>
<path opacity="0.539171" d="M203.536 -37.576V350.717" stroke="#6D8EFF" stroke-width="2" stroke-miterlimit="10" stroke-linejoin="round"/>
<path opacity="0.539171" d="M-11.4715 585.208L135.342 584.814C135.342 584.814 142.102 584.819 145.321 588.03C148.541 591.246 148.218 597.669 148.218 597.669V638.242V725.196" stroke="#6D8EFF" stroke-width="2" stroke-miterlimit="10" stroke-linejoin="round"/>
<path opacity="0.539171" d="M156.285 508.942V600.545V725.196" stroke="#6D8EFF" stroke-width="2" stroke-miterlimit="10" stroke-linejoin="round"/>
<path opacity="0.539171" d="M204.023 395.584V535.202V725.196" stroke="#6D8EFF" stroke-width="2" stroke-miterlimit="10" stroke-linejoin="round" stroke-dasharray="12 12"/>
<path opacity="0.539171" d="M260.322 521.947L192.49 522.207C192.49 522.207 185.417 522.531 181.728 525.782C178.039 529.029 177.733 535.201 177.733 535.201V725.195" stroke="#6D8EFF" stroke-width="2" stroke-miterlimit="10" stroke-linejoin="round"/>
<path opacity="0.539171" d="M348.726 115.16C348.726 115.16 353.135 115.072 356.49 115.176C357.966 115.222 360.236 115.126 361.251 116.026C362.545 117.173 362.395 119.384 362.395 119.562C362.395 122.195 362.369 125.712 362.369 125.712V449.356" stroke="#6D8EFF" stroke-width="2" stroke-miterlimit="10" stroke-linejoin="round"/>
<path opacity="0.539171" d="M348.339 -1V99.5386L348.662 217.084C348.662 217.084 348.624 219.098 348.723 224.934C348.763 227.269 348.371 229.217 346.138 229.217C342.507 229.217 341.964 229.217 340.573 229.217" stroke="#6D8EFF" stroke-width="2" stroke-miterlimit="10" stroke-linejoin="round"/>
<path opacity="0.539171" d="M204.023 229.217H251.889H313.629" stroke="#6D8EFF" stroke-width="2" stroke-miterlimit="10" stroke-linejoin="round"/>
<path opacity="0.539171" d="M203.536 -37.576V350.717" stroke="#6D8EFF" stroke-width="2" stroke-miterlimit="10" stroke-linejoin="round"/>
<path opacity="0.539171" d="M153.29 -1V73.9239V159.6" stroke="#6D8EFF" stroke-width="2" stroke-miterlimit="10" stroke-linejoin="round" stroke-dasharray="11 11"/>
<path opacity="0.539171" d="M204.023 244.6H314.687" stroke="#6D8EFF" stroke-miterlimit="10" stroke-linejoin="round"/>
<path opacity="0.539171" d="M314.687 244.369V371.931" stroke="#6D8EFF" stroke-miterlimit="10" stroke-linejoin="round"/>
<path opacity="0.539171" d="M289.615 244.6V338.879" stroke="#6D8EFF" stroke-miterlimit="10" stroke-linejoin="round"/>
<path opacity="0.539171" d="M264.533 244.6V318.886" stroke="#6D8EFF" stroke-miterlimit="10" stroke-linejoin="round"/>
<path opacity="0.539171" d="M240.287 244.6V509.601C240.287 509.601 240.261 511.894 241.495 513.092C242.728 514.291 245.222 514.401 245.222 514.401L256.139 514.5" stroke="#6D8EFF" stroke-miterlimit="10" stroke-linejoin="round"/>
</g>
<path d="M333.502 312.773C330.67 312.678 325.324 299.859 321.369 313.972C316.34 331.917 308.167 333.048 303.521 313.795C298.874 294.542 290.687 263.191 280.25 295.642C269.814 328.093 260.786 341.564 249.23 308.698C246.458 300.814 242.569 292.55 240.287 291.74C229.21 287.808 227.6 327.006 220.944 326.325" stroke="#3F5FCA" stroke-width="4" stroke-miterlimit="10" stroke-linejoin="round"/>
<path d="M167.696 183.061C167.696 175.102 161.246 168.649 153.29 168.649C145.334 168.649 138.884 175.102 138.884 183.061C138.884 191.021 145.334 197.474 153.29 197.474C161.246 197.474 167.696 191.021 167.696 183.061Z" stroke="black" stroke-width="16" stroke-miterlimit="10" stroke-linejoin="round"/>
<path d="M163.562 183.061C163.562 177.386 158.963 172.785 153.29 172.785C147.616 172.785 143.018 177.386 143.018 183.061C143.018 188.737 147.616 193.338 153.29 193.338C158.963 193.338 163.562 188.737 163.562 183.061Z" stroke="#6D8EFF" stroke-width="2" stroke-miterlimit="10" stroke-linejoin="round"/>
<path d="M171.448 183.061C171.448 173.028 163.318 164.895 153.29 164.895C143.261 164.895 135.131 173.028 135.131 183.061C135.131 193.094 143.261 201.228 153.29 201.228C163.318 201.228 171.448 193.094 171.448 183.061Z" stroke="#6D8EFF" stroke-width="2" stroke-miterlimit="10" stroke-linejoin="round"/>
<path opacity="0.729023" d="M176.742 183.061C176.742 170.104 166.242 159.6 153.29 159.6C140.338 159.6 129.838 170.104 129.838 183.061C129.838 196.019 140.338 206.523 153.29 206.523C166.242 206.523 176.742 196.019 176.742 183.061Z" stroke="#6D8EFF" stroke-width="2" stroke-miterlimit="10" stroke-linejoin="round" stroke-dasharray="8 8"/>
<g opacity="0.693069">
<path d="M348.496 117.373L350.729 115.139L348.496 112.906L346.263 115.139L348.496 117.373Z" fill="#3B4C89" stroke="#3B4C89" stroke-miterlimit="10" stroke-linejoin="round"/>
<path d="M203.536 231.199L205.769 228.966L203.536 226.732L201.303 228.966L203.536 231.199Z" fill="#6180ED" stroke="#6180EC" stroke-miterlimit="10" stroke-linejoin="round"/>
<path d="M204.017 524.314L206.25 522.077L204.017 519.844L201.783 522.077L204.017 524.314Z" fill="#6180ED" stroke="#3B4C89" stroke-miterlimit="10" stroke-linejoin="round"/>
<path d="M289.626 342.426L291.487 340.564L289.626 338.702L287.764 340.564L289.626 342.426Z" stroke="#4C64B4" stroke-miterlimit="10" stroke-linejoin="round"/>
<path d="M264.498 322.398L266.36 320.537L264.498 318.674L262.637 320.537L264.498 322.398Z" stroke="#4C64B4" stroke-miterlimit="10" stroke-linejoin="round"/>
<path d="M240.396 390.333L242.258 388.472L240.396 386.609L238.535 388.472L240.396 390.333Z" stroke="#4C64B4" stroke-miterlimit="10" stroke-linejoin="round"/>
<path d="M156.319 566.785L158.18 564.922L156.319 563.059L154.458 564.922L156.319 566.785Z" fill="#849FFF" stroke="#4C64B4" stroke-miterlimit="10" stroke-linejoin="round"/>
<path d="M481.352 453.359L485.165 449.544L481.352 445.729L477.539 449.544L481.352 453.359Z" stroke="#4C64B4" stroke-miterlimit="10" stroke-linejoin="round"/>
<path d="M203.536 74.555L207.35 70.74L203.536 66.9254L199.723 70.74L203.536 74.555Z" stroke="#4C64B4" stroke-miterlimit="10" stroke-linejoin="round"/>
<path d="M29.4082 589.024L33.2222 585.208L29.4082 581.393L25.5943 585.208L29.4082 589.024Z" stroke="#4C64B4" stroke-miterlimit="10" stroke-linejoin="round"/>
<path opacity="0.583802" d="M470.01 163.034L473.442 159.6L470.01 156.165L466.577 159.6L470.01 163.034Z" stroke="#6D8EFF" stroke-miterlimit="10" stroke-linejoin="round"/>
<path opacity="0.583802" d="M458.132 522.986L460.388 520.728L458.132 518.471L455.877 520.728L458.132 522.986Z" stroke="#6D8EFF" stroke-miterlimit="10" stroke-linejoin="round"/>
<path d="M362.334 453.359L364.335 451.357L362.334 449.356L360.334 451.357L362.334 453.359Z" fill="#7291FF"/>
<path opacity="0.583802" d="M314.672 377.065L317.359 374.377L314.672 371.689L311.985 374.377L314.672 377.065Z" stroke="#6D8EFF" stroke-miterlimit="10" stroke-linejoin="round"/>
<path d="M482.667 172.785C482.667 171.944 481.986 171.263 481.146 171.263C480.306 171.263 479.625 171.944 479.625 172.785C479.625 173.625 480.306 174.307 481.146 174.307C481.986 174.307 482.667 173.625 482.667 172.785Z" fill="#4C66C1"/>
<path d="M482.667 310.79C482.667 309.95 481.986 309.269 481.146 309.269C480.306 309.269 479.625 309.95 479.625 310.79C479.625 311.631 480.306 312.313 481.146 312.313C481.986 312.313 482.667 311.631 482.667 310.79Z" fill="#4C66C1"/>
<path d="M513.072 525.832C513.072 524.993 512.391 524.314 511.551 524.314C510.711 524.314 510.03 524.993 510.03 525.832C510.03 526.676 510.711 527.356 511.551 527.356C512.391 527.356 513.072 526.676 513.072 525.832Z" fill="#4C66C1"/>
<path d="M459.654 498.405C459.654 497.564 458.973 496.883 458.132 496.883C457.292 496.883 456.611 497.564 456.611 498.405C456.611 499.243 457.292 499.928 458.132 499.928C458.973 499.928 459.654 499.243 459.654 498.405Z" fill="#4C66C1"/>
<path d="M459.654 502.949C459.654 502.105 458.973 501.426 458.132 501.426C457.292 501.426 456.611 502.105 456.611 502.949C456.611 503.788 457.292 504.467 458.132 504.467C458.973 504.467 459.654 503.788 459.654 502.949Z" fill="#4C66C1"/>
<path d="M459.654 291.612C459.654 290.771 458.973 290.089 458.132 290.089C457.292 290.089 456.611 290.771 456.611 291.612C456.611 292.452 457.292 293.134 458.132 293.134C458.973 293.134 459.654 292.452 459.654 291.612Z" fill="#4C66C1"/>
<path d="M459.654 296.243C459.654 295.402 458.973 294.721 458.132 294.721C457.292 294.721 456.611 295.402 456.611 296.243C456.611 297.084 457.292 297.765 458.132 297.765C458.973 297.765 459.654 297.084 459.654 296.243Z" fill="#4C66C1"/>
<path d="M459.654 76.0773C459.654 75.2363 458.973 74.5551 458.132 74.5551C457.292 74.5551 456.611 75.2363 456.611 76.0773C456.611 76.9178 457.292 77.5995 458.132 77.5995C458.973 77.5995 459.654 76.9178 459.654 76.0773Z" fill="#4C66C1"/>
<path d="M459.654 208.045C459.654 207.204 458.973 206.523 458.132 206.523C457.292 206.523 456.611 207.204 456.611 208.045C456.611 208.886 457.292 209.567 458.132 209.567C458.973 209.567 459.654 208.886 459.654 208.045Z" fill="#4C66C1"/>
<path d="M395.34 283.118C395.34 282.277 394.659 281.595 393.819 281.595C392.978 281.595 392.297 282.277 392.297 283.118C392.297 283.958 392.978 284.639 393.819 284.639C394.659 284.639 395.34 283.958 395.34 283.118Z" fill="#4C66C1"/>
<path d="M395.34 280.073C395.34 279.233 394.659 278.551 393.819 278.551C392.978 278.551 392.297 279.233 392.297 280.073C392.297 280.914 392.978 281.595 393.819 281.595C394.659 281.595 395.34 280.914 395.34 280.073Z" fill="#4C66C1"/>
<path d="M395.34 156.165C395.34 155.325 394.659 154.643 393.819 154.643C392.978 154.643 392.297 155.325 392.297 156.165C392.297 157.006 392.978 157.687 393.819 157.687C394.659 157.687 395.34 157.006 395.34 156.165Z" fill="#4C66C1"/>
<path d="M395.34 151.077C395.34 150.236 394.659 149.555 393.819 149.555C392.978 149.555 392.297 150.236 392.297 151.077C392.297 151.918 392.978 152.599 393.819 152.599C394.659 152.599 395.34 151.918 395.34 151.077Z" fill="#4C66C1"/>
<path d="M395.34 76.0773C395.34 75.2363 394.659 74.5551 393.819 74.5551C392.978 74.5551 392.297 75.2363 392.297 76.0773C392.297 76.9178 392.978 77.5995 393.819 77.5995C394.659 77.5995 395.34 76.9178 395.34 76.0773Z" fill="#4C66C1"/>
<path d="M350.018 31.1921C350.018 30.3514 349.336 29.6699 348.496 29.6699C347.656 29.6699 346.974 30.3514 346.974 31.1921C346.974 32.0327 347.656 32.7142 348.496 32.7142C349.336 32.7142 350.018 32.0327 350.018 31.1921Z" fill="#4C66C1"/>
<path d="M350.018 36.5245C350.018 35.6838 349.336 35.0023 348.496 35.0023C347.656 35.0023 346.974 35.6838 346.974 36.5245C346.974 37.3652 347.656 38.0466 348.496 38.0466C349.336 38.0466 350.018 37.3652 350.018 36.5245Z" fill="#4C66C1"/>
<path d="M350.018 171.263C350.018 170.422 349.336 169.74 348.496 169.74C347.656 169.74 346.974 170.422 346.974 171.263C346.974 172.103 347.656 172.785 348.496 172.785C349.336 172.785 350.018 172.103 350.018 171.263Z" fill="#4C66C1"/>
<path d="M294.53 228.966C294.53 228.125 293.849 227.443 293.008 227.443C292.168 227.443 291.487 228.125 291.487 228.966C291.487 229.806 292.168 230.488 293.008 230.488C293.849 230.488 294.53 229.806 294.53 228.966Z" fill="#4C66C1"/>
<path d="M287.764 228.966C287.764 228.125 287.084 227.443 286.243 227.443C285.403 227.443 284.721 228.125 284.721 228.966C284.721 229.806 285.403 230.488 286.243 230.488C287.084 230.488 287.764 229.806 287.764 228.966Z" fill="#4C66C1"/>
<path d="M223.987 228.966C223.987 228.125 223.306 227.443 222.466 227.443C221.626 227.443 220.944 228.125 220.944 228.966C220.944 229.806 221.626 230.488 222.466 230.488C223.306 230.488 223.987 229.806 223.987 228.966Z" fill="#4C66C1"/>
<path d="M205.538 97.863C205.538 97.0225 204.857 96.3413 204.017 96.3413C203.176 96.3413 202.495 97.0225 202.495 97.863C202.495 98.7041 203.176 99.3853 204.017 99.3853C204.857 99.3853 205.538 98.7041 205.538 97.863Z" fill="#4C66C1"/>
<path d="M205.538 102.141C205.538 101.3 204.857 100.619 204.017 100.619C203.176 100.619 202.495 101.3 202.495 102.141C202.495 102.982 203.176 103.663 204.017 103.663C204.857 103.663 205.538 102.982 205.538 102.141Z" fill="#4C66C1"/>
<path d="M205.058 171.263C205.058 170.422 204.377 169.74 203.537 169.74C202.696 169.74 202.015 170.422 202.015 171.263C202.015 172.103 202.696 172.785 203.537 172.785C204.377 172.785 205.058 172.103 205.058 171.263Z" fill="#4C66C1"/>
<path d="M205.039 278.551C205.039 277.71 204.358 277.029 203.517 277.029C202.677 277.029 201.996 277.71 201.996 278.551C201.996 279.391 202.677 280.073 203.517 280.073C204.358 280.073 205.039 279.391 205.039 278.551Z" fill="#849FFF"/>
<path opacity="0.834099" d="M241.328 284.049C241.328 283.535 240.911 283.118 240.396 283.118C239.882 283.118 239.465 283.535 239.465 284.049C239.465 284.564 239.882 284.981 240.396 284.981C240.911 284.981 241.328 284.564 241.328 284.049Z" fill="#849FFF"/>
<path opacity="0.834099" d="M265.259 312.051C265.259 311.631 264.918 311.29 264.498 311.29C264.078 311.29 263.738 311.631 263.738 312.051C263.738 312.471 264.078 312.812 264.498 312.812C264.918 312.812 265.259 312.471 265.259 312.051Z" fill="#849FFF"/>
<path opacity="0.834099" d="M290.648 255.58C290.648 254.987 290.168 254.507 289.576 254.507C288.983 254.507 288.503 254.987 288.503 255.58C288.503 256.172 288.983 256.653 289.576 256.653C290.168 256.653 290.648 256.172 290.648 255.58Z" fill="#849FFF"/>
<path opacity="0.834099" d="M315.695 320.439C315.695 319.808 315.183 319.297 314.553 319.297C313.923 319.297 313.412 319.808 313.412 320.439C313.412 321.069 313.923 321.58 314.553 321.58C315.183 321.58 315.695 321.069 315.695 320.439Z" fill="#849FFF"/>
<path d="M205.27 310.79C205.27 309.95 204.589 309.269 203.749 309.269C202.908 309.269 202.227 309.95 202.227 310.79C202.227 311.631 202.908 312.313 203.749 312.313C204.589 312.313 205.27 311.631 205.27 310.79Z" fill="#849FFF"/>
<path d="M365.231 602.189L371.529 605.42L365.27 609.27L365.231 602.189Z" fill="#3E5090" stroke="#3E5090" stroke-miterlimit="10" stroke-linejoin="round"/>
<path d="M585.258 522.486L578.96 525.717L585.219 529.568L585.258 522.486Z" stroke="#3D4E8C" stroke-miterlimit="10" stroke-linejoin="round"/>
<path d="M577.337 522.486L571.04 525.717L577.299 529.568L577.337 522.486Z" stroke="#3D4E8C" stroke-miterlimit="10" stroke-linejoin="round"/>
<path d="M358.037 602.189L364.335 605.42L358.076 609.27L358.037 602.189Z" fill="#3E5090" stroke="#3D4E8C" stroke-miterlimit="10" stroke-linejoin="round"/>
<path d="M236.514 520.164L233.367 521.782L236.495 523.705L236.514 520.164Z" stroke="#3D4E8C" stroke-miterlimit="10" stroke-linejoin="round"/>
<path d="M266.174 535.351L262.637 535.391L264.576 538.508L266.174 535.351Z" stroke="#3D4E8C" stroke-miterlimit="10" stroke-linejoin="round"/>
<path d="M206.429 704.105L203.988 699.326L201.068 704.07L206.429 704.105Z" stroke="#3D4E8C" stroke-miterlimit="10" stroke-linejoin="round"/>
<path d="M241.942 474.699L240.331 471.548L238.405 474.676L241.942 474.699Z" stroke="#3D4E8C" stroke-miterlimit="10" stroke-linejoin="round"/>
<path d="M103.351 587.486L103.46 582.082L98.6032 584.899L103.351 587.486Z" stroke="#3D4E8C" stroke-miterlimit="10" stroke-linejoin="round"/>
<path d="M250.427 516.134L250.497 512.593L247.321 514.441L250.427 516.134Z" stroke="#3D4E8C" stroke-miterlimit="10" stroke-linejoin="round"/>
<path d="M252.424 516.134L252.494 512.593L249.318 514.441L252.424 516.134Z" stroke="#3D4E8C" stroke-miterlimit="10" stroke-linejoin="round"/>
</g>
<g opacity="0.644247">
<path d="M178.127 502.455C178.127 499.283 175.555 496.709 172.382 496.709C169.209 496.709 166.637 499.283 166.637 502.455C166.637 505.631 169.209 508.203 172.382 508.203C175.555 508.203 178.127 505.631 178.127 502.455Z" stroke="#6180ED" stroke-width="2.50173" stroke-miterlimit="10"/>
<path d="M178.127 486.398C178.127 483.223 175.555 480.65 172.382 480.65C169.209 480.65 166.637 483.223 166.637 486.398C166.637 489.572 169.209 492.145 172.382 492.145C175.555 492.145 178.127 489.572 178.127 486.398Z" stroke="#6180ED" stroke-width="2.50173" stroke-miterlimit="10"/>
<path d="M178.127 470.508C178.127 467.333 175.555 464.76 172.382 464.76C169.209 464.76 166.637 467.333 166.637 470.508C166.637 473.682 169.209 476.255 172.382 476.255C175.555 476.255 178.127 473.682 178.127 470.508Z" stroke="#6180ED" stroke-width="2.50173" stroke-miterlimit="10"/>
<path d="M162.074 502.455C162.074 499.283 159.503 496.709 156.33 496.709C153.157 496.709 150.585 499.283 150.585 502.455C150.585 505.631 153.157 508.203 156.33 508.203C159.503 508.203 162.074 505.631 162.074 502.455Z" stroke="#6180ED" stroke-width="2.50173" stroke-miterlimit="10"/>
<path d="M162.074 486.398C162.074 483.223 159.503 480.65 156.33 480.65C153.157 480.65 150.585 483.223 150.585 486.398C150.585 489.572 153.157 492.145 156.33 492.145C159.503 492.145 162.074 489.572 162.074 486.398Z" stroke="#6180ED" stroke-width="2.50173" stroke-miterlimit="10"/>
<path d="M162.074 470.508C162.074 467.333 159.503 464.76 156.33 464.76C153.157 464.76 150.585 467.333 150.585 470.508C150.585 473.682 153.157 476.255 156.33 476.255C159.503 476.255 162.074 473.682 162.074 470.508Z" stroke="#6180ED" stroke-width="2.50173" stroke-miterlimit="10"/>
<path d="M146.191 502.455C146.191 499.283 143.581 496.709 140.362 496.709C137.142 496.709 134.532 499.283 134.532 502.455C134.532 505.631 137.142 508.203 140.362 508.203C143.581 508.203 146.191 505.631 146.191 502.455Z" stroke="#6180ED" stroke-width="2.50173" stroke-miterlimit="10"/>
<path d="M146.191 486.398C146.191 483.223 143.581 480.65 140.362 480.65C137.142 480.65 134.532 483.223 134.532 486.398C134.532 489.572 137.142 492.145 140.362 492.145C143.581 492.145 146.191 489.572 146.191 486.398Z" stroke="#6180ED" stroke-width="2.50173" stroke-miterlimit="10"/>
<path d="M172.551 476.086V480.819" stroke="#6180ED" stroke-width="2.50173" stroke-miterlimit="10"/>
<path d="M156.33 476.086V480.819" stroke="#6180ED" stroke-width="2.50173" stroke-miterlimit="10"/>
<path d="M172.551 492.145V496.878" stroke="#6180ED" stroke-width="2.50173" stroke-miterlimit="10"/>
<path d="M167.745 489.71L160.824 498.279" stroke="#6180ED" stroke-width="2.50173" stroke-miterlimit="10"/>
<path d="M167.745 473.698L160.824 482.267" stroke="#6180ED" stroke-width="2.50173" stroke-miterlimit="10"/>
<path d="M156.33 492.145V496.878" stroke="#6180ED" stroke-width="2.50173" stroke-miterlimit="10"/>
<path d="M161.906 503.304H166.637" stroke="#6180ED" stroke-width="2.50173" stroke-miterlimit="10"/>
<path d="M146.022 503.304H150.585" stroke="#6180ED" stroke-width="2.50173" stroke-miterlimit="10"/>
<path d="M140.277 492.145V496.878" stroke="#6180ED" stroke-width="2.50173" stroke-miterlimit="10"/>
<path d="M146.022 486.567H150.585" stroke="#6180ED" stroke-width="2.50173" stroke-miterlimit="10"/>
</g>
<path d="M142.812 464.76C142.812 461.586 140.24 459.013 137.067 459.013C133.894 459.013 131.322 461.586 131.322 464.76C131.322 467.934 133.894 470.508 137.067 470.508C140.24 470.508 142.812 467.934 142.812 464.76Z" fill="#5974D0" stroke="#5974D0" stroke-width="1.91309" stroke-miterlimit="10"/>
<path opacity="0.523735" d="M434.543 304.715H382.224V383.383H434.543V304.715Z" stroke="#C1CFFF" stroke-width="2" stroke-miterlimit="10" stroke-linejoin="round"/>
<path opacity="0.523735" d="M429.408 314.286C429.07 313.942 427.713 314.159 427.325 314.179C425.307 314.284 423.292 314.265 421.268 314.265C413.784 314.265 406.302 314.3 398.816 314.3" stroke="#C1CFFF" stroke-width="2" stroke-miterlimit="10" stroke-linecap="round" stroke-linejoin="round"/>
<path opacity="0.523735" d="M429.221 318.592C425.948 318.038 422.292 318.607 418.94 318.607C412.155 318.607 405.294 318.429 398.548 318.429" stroke="#C1CFFF" stroke-width="2" stroke-miterlimit="10" stroke-linecap="round" stroke-linejoin="round"/>
<path opacity="0.523735" d="M429.318 323.672C429.47 323.672 429.015 323.672 428.864 323.672C428.49 323.672 428.116 323.672 427.743 323.672C427.073 323.672 426.403 323.672 425.732 323.672C423.498 323.672 421.264 323.672 419.029 323.672C412.376 323.672 405.724 323.672 399.071 323.672" stroke="#C1CFFF" stroke-width="2" stroke-miterlimit="10" stroke-linecap="round" stroke-linejoin="round"/>
<path opacity="0.523735" d="M429.286 328.761C429.176 328.649 429.202 328.662 428.9 328.654C427.781 328.622 426.661 328.628 425.541 328.618C424.014 328.605 422.485 328.618 420.957 328.618C413.526 328.618 406.084 328.361 398.636 328.361" stroke="#C1CFFF" stroke-width="2" stroke-miterlimit="10" stroke-linecap="round" stroke-linejoin="round"/>
<path opacity="0.523735" d="M429.6 332.704C420.262 332.704 410.923 332.477 401.579 332.477C398.337 332.477 395.094 332.477 391.852 332.477C390.927 332.477 390.002 332.477 389.077 332.477C388.682 332.477 388.3 332.547 387.907 332.547H387.907" stroke="#C1CFFF" stroke-width="2" stroke-miterlimit="10" stroke-linecap="round" stroke-linejoin="round"/>
<path opacity="0.523735" d="M395.357 313.84C395.357 318.659 395.23 323.481 395.23 328.307" stroke="#C1CFFF" stroke-width="2" stroke-miterlimit="10" stroke-linecap="round" stroke-linejoin="round"/>
<path opacity="0.523735" d="M395.447 313.743C392.471 313.743 389.448 313.677 386.474 313.677" stroke="#C1CFFF" stroke-width="2" stroke-miterlimit="10" stroke-linecap="round" stroke-linejoin="round"/>
<path opacity="0.523735" d="M386.149 314.115C386.149 318.961 386.408 323.814 386.408 328.642" stroke="#C1CFFF" stroke-width="2" stroke-miterlimit="10" stroke-linecap="round" stroke-linejoin="round"/>
<path opacity="0.523735" d="M395.143 328.971C392.308 328.971 389.469 328.892 386.632 328.892" stroke="#C1CFFF" stroke-width="2" stroke-miterlimit="10" stroke-linecap="round" stroke-linejoin="round"/>
<path opacity="0.523735" d="M426.945 342.6C427.845 342.11 428.178 343.574 427.652 344.1C427.129 344.623 425.899 344.055 426.15 343.303C426.309 342.825 426.811 342.673 426.945 342.6Z" stroke="#C1CFFF" stroke-width="2" stroke-miterlimit="10" stroke-linecap="round" stroke-linejoin="round"/>
<path opacity="0.523735" d="M419.446 369.599C420.771 370.028 419.932 371.839 418.51 371.219C417.566 370.809 418.703 369.358 419.446 369.599Z" stroke="#C1CFFF" stroke-width="2" stroke-miterlimit="10" stroke-linecap="round" stroke-linejoin="round"/>
<path opacity="0.523735" d="M410.581 356.238C411.387 356.222 411.662 357.278 410.881 357.434C409.524 357.706 409.46 356.26 410.581 356.238Z" stroke="#C1CFFF" stroke-width="2" stroke-miterlimit="10" stroke-linecap="round" stroke-linejoin="round"/>
<path opacity="0.523735" d="M398.435 350.204C399.388 350.197 399.034 352.135 398.115 351.824C396.458 351.263 397.522 350.21 398.435 350.204Z" stroke="#C1CFFF" stroke-width="2" stroke-miterlimit="10" stroke-linecap="round" stroke-linejoin="round"/>
<path opacity="0.523735" d="M389.117 360.869C389.689 362.189 388.161 362.849 387.588 361.685C387.021 360.533 388.671 359.839 389.117 360.869Z" stroke="#C1CFFF" stroke-width="2" stroke-miterlimit="10" stroke-linecap="round" stroke-linejoin="round"/>
<path opacity="0.523735" d="M430.204 345.943C430.204 345.891 428.536 344.295 428.31 344.295" stroke="#C1CFFF" stroke-width="2" stroke-miterlimit="10" stroke-linecap="round" stroke-linejoin="round"/>
<path opacity="0.523735" d="M426.92 344.635C427.21 345.205 426.371 348.007 426.135 348.761C425.548 350.643 424.612 352.458 423.893 354.297C423.006 356.569 422.468 359.15 421.891 361.509C421.446 363.325 420.853 365.085 420.184 366.826C419.937 367.468 419.737 368.025 419.465 368.642C419.376 368.843 419.213 369.47 419.213 369.251" stroke="#C1CFFF" stroke-width="2" stroke-miterlimit="10" stroke-linecap="round" stroke-linejoin="round"/>
<path opacity="0.523735" d="M418.401 369.658C418.401 368.852 417.316 367.698 416.899 367.013C415.532 364.766 414.315 362.522 413.232 360.116C413.146 359.924 411.94 357.928 411.94 357.858" stroke="#C1CFFF" stroke-width="2" stroke-miterlimit="10" stroke-linecap="round" stroke-linejoin="round"/>
<path opacity="0.523735" d="M409.446 356.355C407.687 354.569 404.724 354.247 402.754 352.746C402.176 352.305 400.671 351.372 399.989 351.372" stroke="#C1CFFF" stroke-width="2" stroke-miterlimit="10" stroke-linecap="round" stroke-linejoin="round"/>
<path opacity="0.523735" d="M396.967 352.107C395.151 354.53 393.234 356.845 391.098 358.982C390.696 359.385 389.835 360.726 389.295 360.726" stroke="#C1CFFF" stroke-width="2" stroke-miterlimit="10" stroke-linecap="round" stroke-linejoin="round"/>
<path opacity="0.523735" d="M387.482 360.95C387.142 360.95 386.055 358.02 385.755 358.02" stroke="#C1CFFF" stroke-width="2" stroke-miterlimit="10" stroke-linecap="round" stroke-linejoin="round"/>
<path opacity="0.523735" d="M333.906 238.891C334.043 238.615 333.923 237.819 333.81 237.533C333.615 237.037 333.507 236.466 333.295 235.954C332.748 234.627 331.306 233.734 330.056 233.163C328.896 232.633 327.592 232.577 326.337 232.658C325.337 232.722 324.193 232.653 323.259 233.068C321.139 234.011 319.876 236.956 319.876 239.176" stroke="#C1CFFF" stroke-width="2" stroke-miterlimit="10" stroke-linecap="round" stroke-linejoin="round"/>
<path opacity="0.523735" d="M326.496 232.472C326.378 232.357 326.891 232.484 327.05 232.467C327.546 232.411 328.07 232.431 328.55 232.27C329.78 231.859 330.739 230.843 331.147 229.625C332.097 226.784 330.072 223.83 327.198 223.441C323.616 222.955 321.818 226.42 322.274 229.56C322.467 230.894 323.542 231.787 324.72 232.317C325.029 232.456 326.743 232.713 326.496 232.472Z" stroke="#C1CFFF" stroke-width="2" stroke-miterlimit="10" stroke-linecap="round" stroke-linejoin="round"/>
<path opacity="0.523735" d="M463.597 251.348C463.593 251.352 463.591 251.36 463.585 251.36C462.126 251.372 460.667 251.379 459.208 251.386C457.233 251.397 455.27 251.197 453.339 251.197" stroke="#C1CFFF" stroke-width="2" stroke-miterlimit="10" stroke-linecap="round" stroke-linejoin="round"/>
<path opacity="0.523735" d="M464.584 251.735C464.39 252.253 463.645 252.525 463.237 252.831C462.207 253.604 461.23 254.446 460.177 255.183C459.96 255.336 459.379 255.882 459.083 255.882" stroke="#C1CFFF" stroke-width="2" stroke-miterlimit="10" stroke-linecap="round" stroke-linejoin="round"/>
<path opacity="0.523735" d="M458.571 256.149C458.707 256.014 457.301 255.297 457.183 255.208C456.025 254.329 454.821 253.473 453.627 252.637C453.511 252.555 452.473 251.945 452.473 251.898" stroke="#C1CFFF" stroke-width="2" stroke-miterlimit="10" stroke-linecap="round" stroke-linejoin="round"/>
<path opacity="0.523735" d="M463.982 259.637C461.048 259.637 458.063 259.897 455.129 259.698C454.384 259.647 453.687 259.544 452.931 259.544" stroke="#C1CFFF" stroke-width="2" stroke-miterlimit="10" stroke-linecap="round" stroke-linejoin="round"/>
<path opacity="0.523735" d="M465.002 252.848C465.002 254.066 465.236 255.256 465.176 256.489C465.139 257.25 465.206 258.025 465.143 258.784C465.128 258.964 464.981 259.224 464.981 259.364" stroke="#C1CFFF" stroke-width="2" stroke-miterlimit="10" stroke-linecap="round" stroke-linejoin="round"/>
<path opacity="0.523735" d="M452.061 252.906C452.061 253.567 451.745 254.219 451.716 254.882C451.683 255.644 451.62 256.407 451.556 257.166C451.513 257.683 451.672 258.186 451.672 258.688" stroke="#C1CFFF" stroke-width="2" stroke-miterlimit="10" stroke-linecap="round" stroke-linejoin="round"/>
<g opacity="0.523735">
<path d="M481.612 405.411C483.717 405.411 485.168 406.323 485.65 408.457C485.754 408.921 485.892 409.689 485.738 410.151C485.568 410.662 485.73 411.271 485.478 411.776C484.787 413.158 482.957 413.639 481.567 413.746C479.871 413.876 477.958 413.341 477.232 411.688C477.154 411.509 476.823 410.252 476.972 410.104C477.091 409.985 477.66 410.033 477.828 410.016C478.571 409.941 479.341 409.872 480.088 409.872C480.181 409.872 480.932 409.941 480.979 409.894C481.076 409.797 481.005 409.064 481.023 408.904C481.141 407.842 481.166 406.768 481.166 405.696" fill="#7E91D5"/>
<path d="M481.612 405.411C483.717 405.411 485.168 406.323 485.65 408.457C485.754 408.921 485.892 409.689 485.738 410.151C485.568 410.662 485.73 411.271 485.478 411.776C484.787 413.158 482.957 413.639 481.567 413.746C479.871 413.876 477.958 413.341 477.232 411.688C477.154 411.509 476.823 410.252 476.972 410.104C477.091 409.985 477.66 410.033 477.828 410.016C478.571 409.941 479.341 409.872 480.088 409.872C480.181 409.872 480.932 409.941 480.979 409.894C481.076 409.797 481.005 409.064 481.023 408.904C481.141 407.842 481.166 406.768 481.166 405.696" stroke="#C1CFFF" stroke-width="2" stroke-miterlimit="10" stroke-linecap="round" stroke-linejoin="round"/>
</g>
<g opacity="0.523735">
<path d="M479.686 405.061C479.713 405.197 479.681 407.864 479.675 407.87C479.614 407.93 477.25 407.935 476.958 407.935C476.894 407.935 476.282 407.972 476.264 407.935C475.733 406.856 476.444 404.878 477.574 404.498C477.703 404.456 479.44 404.035 479.44 404.517" fill="#7E91D5"/>
<path d="M479.686 405.061C479.713 405.197 479.681 407.864 479.675 407.87C479.614 407.93 477.25 407.935 476.958 407.935C476.894 407.935 476.282 407.972 476.264 407.935C475.733 406.856 476.444 404.878 477.574 404.498C477.703 404.456 479.44 404.035 479.44 404.517" stroke="#C1CFFF" stroke-width="2" stroke-miterlimit="10" stroke-linecap="round" stroke-linejoin="round"/>
</g>
<path opacity="0.523735" d="M333.065 319.155C331.977 319.155 330.89 318.66 329.766 318.396C319.149 315.907 321.613 299.429 313.211 294.552C310.492 292.974 307.172 295.153 304.746 296.164C299.719 298.26 294.224 302.279 288.377 300.582C282.372 298.839 276.954 291.044 273.689 286.078C272.222 283.846 270.539 280.031 268.026 278.754C258.365 273.848 252.345 284.575 243.478 285.15C241.76 285.262 239.715 285.227 238.125 284.581C233.623 282.752 230.566 278.464 226.175 276.552C224.877 275.987 223.872 276.299 222.752 276.672C222.422 276.782 221.88 277.294 221.694 277.294" stroke="#C1CFFF" stroke-width="2" stroke-miterlimit="10" stroke-linecap="round" stroke-linejoin="round"/>
<path d="M484.798 695.45C484.798 693.208 482.983 691.395 480.745 691.395H464.81C462.572 691.395 460.757 693.208 460.757 695.45V748.573C460.757 750.811 462.572 752.629 464.81 752.629H480.745C482.983 752.629 484.798 750.811 484.798 748.573V695.45Z" fill="url(#paint7_linear_1036_211)"/>
<g opacity="0.529898">
<path d="M456.247 715.407L432.207 697.867" stroke="#657ED4" stroke-width="2" stroke-miterlimit="10" stroke-linejoin="round"/>
<path d="M456.247 720.606L432.207 703.071" stroke="#657ED4" stroke-width="2" stroke-miterlimit="10" stroke-linejoin="round"/>
<path d="M456.247 726.194L432.207 708.66" stroke="#657ED4" stroke-width="2" stroke-miterlimit="10" stroke-linejoin="round"/>
<path d="M456.247 731.713L432.207 714.178" stroke="#657ED4" stroke-width="2" stroke-miterlimit="10" stroke-linejoin="round"/>
<path d="M456.247 739.549L432.207 722.009" stroke="#657ED4" stroke-width="2" stroke-miterlimit="10" stroke-linejoin="round"/>
<path d="M448.737 748.134L443.575 743.914L432.207 735.618" stroke="#657ED4" stroke-width="2" stroke-miterlimit="10" stroke-linejoin="round"/>
<path d="M456.247 746.286L443.574 737.042L432.207 728.746" stroke="#657ED4" stroke-width="2" stroke-miterlimit="10" stroke-linejoin="round"/>
<path d="M456.247 709.544L432.207 692.004" stroke="#657ED4" stroke-width="2" stroke-miterlimit="10" stroke-linejoin="round"/>
<path d="M456.247 704.02L432.207 686.481" stroke="#657ED4" stroke-width="2" stroke-miterlimit="10" stroke-linejoin="round"/>
<path d="M456.247 698.926L432.207 681.391" stroke="#657ED4" stroke-width="2" stroke-miterlimit="10" stroke-linejoin="round"/>
<path d="M456.247 693.238L433.15 676.272" stroke="#657ED4" stroke-width="2" stroke-miterlimit="10" stroke-linejoin="round"/>
<path d="M456.247 687.499L438.013 674.699" stroke="#657ED4" stroke-width="2" stroke-miterlimit="10" stroke-linejoin="round"/>
<path d="M456.247 681.391L446.236 674.699" stroke="#657ED4" stroke-width="2" stroke-miterlimit="10" stroke-linejoin="round"/>
<path d="M456.247 679.559C456.247 676.872 454.433 674.699 452.195 674.699H436.259C434.021 674.699 432.207 676.872 432.207 679.559V743.27C432.207 745.956 434.021 748.134 436.259 748.134H452.195C454.433 748.134 456.247 745.956 456.247 743.27V679.559Z" stroke="#657ED4" stroke-width="2" stroke-miterlimit="10" stroke-linecap="round" stroke-linejoin="round"/>
</g>
<path d="M426.734 668.022C426.734 664.551 424.919 661.744 422.681 661.744H406.745C404.507 661.744 402.692 664.551 402.692 668.022V750.266C402.692 753.732 404.507 756.544 406.745 756.544H422.681C424.919 756.544 426.734 753.732 426.734 750.266V668.022Z" fill="url(#paint8_linear_1036_211)"/>
<path d="M396.99 657.574C396.99 653.659 395.176 650.482 392.938 650.482H377.002C374.764 650.482 372.95 653.659 372.95 657.574V750.466C372.95 754.382 374.764 757.553 377.002 757.553H392.938C395.176 757.553 396.99 754.382 396.99 750.466V657.574Z" fill="url(#paint9_linear_1036_211)"/>
<g opacity="0.460856">
<path d="M496.619 691.55C494.863 691.535 489.313 692.593 489.29 688.788C489.28 687.13 489.163 683.149 489.163 683.149C489.107 680.687 487.069 678.645 484.611 678.58L465.293 678.075C462.835 678.01 460.897 675.968 460.965 673.506L461.101 668.626C461.169 666.164 459.233 664.087 456.775 663.982L435.05 663.043C432.592 662.938 430.61 660.855 430.621 658.398L430.636 655.212C430.647 652.75 428.663 650.707 426.205 650.642L406.985 650.153C404.527 650.093 402.457 648.05 402.362 645.588L402.247 642.602C402.152 640.139 400.083 638.082 397.626 637.997L374.997 637.832" stroke="#657ED4" stroke-width="2" stroke-miterlimit="10" stroke-linejoin="round"/>
<path d="M368.969 637.782L374.94 641.298L374.997 634.366L368.969 637.782Z" stroke="#657ED4" stroke-width="2" stroke-miterlimit="10" stroke-linejoin="round"/>
<path d="M376.329 637.782L382.3 641.298L382.356 634.366L376.329 637.782Z" fill="#657ED4" stroke="#657ED4" stroke-width="2" stroke-miterlimit="10" stroke-linejoin="round"/>
</g>
<path opacity="0.25" d="M513.35 650.482H115.686V748.134H513.35V650.482Z" fill="url(#paint10_linear_1036_211)"/>
<path d="M216.177 362.073L215.895 385.042L190.205 385.38" stroke="#6D8EFF" stroke-width="2" stroke-miterlimit="10" stroke-linejoin="round"/>
<path d="M212.408 373.227H208.603V384.881H212.408V373.227Z" stroke="#6D8EFF" stroke-width="2" stroke-miterlimit="10" stroke-linejoin="round"/>
<path d="M206.367 368.331H201.553V384.881H206.367V368.331Z" stroke="#6D8EFF" stroke-width="2" stroke-miterlimit="10" stroke-linejoin="round"/>
<path d="M198.213 363.475H193.454V384.881H198.213V363.475Z" stroke="#6D8EFF" stroke-width="2" stroke-miterlimit="10" stroke-linejoin="round"/>
<path d="M216.177 359.494L217.666 362.073H214.689L216.177 359.494Z" stroke="#6D8EFF" stroke-width="2" stroke-miterlimit="10" stroke-linejoin="round"/>
<path d="M187.621 385.371L190.205 383.891L190.194 386.869L187.621 385.371Z" stroke="#6D8EFF" stroke-width="2" stroke-miterlimit="10" stroke-linejoin="round"/>
<path d="M284.171 359.27H250.333V363.86H284.171V359.27Z" stroke="#6D8EFF" stroke-width="2" stroke-miterlimit="10" stroke-linejoin="round"/>
<path d="M291.848 366.886H250.333V376.281H291.848V366.886Z" stroke="#6D8EFF" stroke-width="2" stroke-miterlimit="10" stroke-linejoin="round"/>
<path d="M453.822 183.061H432.794V193.283H453.822V183.061Z" stroke="#6D8EFF" stroke-width="2" stroke-miterlimit="10" stroke-linejoin="round"/>
<path d="M453.604 195.142H444.837V207.022H453.604V195.142Z" stroke="#6D8EFF" stroke-width="2" stroke-miterlimit="10" stroke-linejoin="round"/>
<path d="M443.308 195.009H432.794V198.312H443.308V195.009Z" stroke="#6D8EFF" stroke-width="2" stroke-miterlimit="10" stroke-linejoin="round"/>
<path d="M443.308 199.832H432.794V202.854H443.308V199.832Z" stroke="#6D8EFF" stroke-width="2" stroke-miterlimit="10" stroke-linejoin="round"/>
<path d="M443.308 204.637H432.794V207.022H443.308V204.637Z" stroke="#6D8EFF" stroke-width="2" stroke-miterlimit="10" stroke-linejoin="round"/>
<path d="M157.849 178.077H145.827L149.048 181.977L160.752 181.959L157.849 178.077Z" stroke="#6D8EFF" stroke-width="2" stroke-miterlimit="10" stroke-linejoin="round"/>
<path d="M157.849 180.246H145.827L149.048 184.146L160.752 184.128L157.849 180.246Z" stroke="#6D8EFF" stroke-width="2" stroke-miterlimit="10" stroke-linejoin="round"/>
<path d="M157.849 182.196H145.827L149.048 186.095L160.752 186.077L157.849 182.196Z" stroke="#6D8EFF" stroke-width="2" stroke-miterlimit="10" stroke-linejoin="round"/>
<path d="M157.849 184.146H145.827L149.048 188.045L160.752 188.027L157.849 184.146Z" stroke="#6D8EFF" stroke-width="2" stroke-miterlimit="10" stroke-linejoin="round"/>
<path d="M177.99 249.578H171.849V252.458V258.302H177.99V249.578Z" stroke="#6D8EFF" stroke-width="2" stroke-miterlimit="10" stroke-linejoin="round"/>
<path d="M170.132 255.21H163.99V258.09V263.934H170.132V255.21Z" stroke="#6D8EFF" stroke-width="2" stroke-miterlimit="10" stroke-linejoin="round"/>
<path d="M170.269 249.578H163.991V253.444H170.269V249.578Z" stroke="#6D8EFF" stroke-width="2" stroke-miterlimit="10" stroke-linejoin="round"/>
<path d="M178.127 260.067H171.849V263.934H178.127V260.067Z" stroke="#6D8EFF" stroke-width="2" stroke-miterlimit="10" stroke-linejoin="round"/>
<defs>
<linearGradient id="paint0_linear_1036_211" x1="173.429" y1="265.794" x2="408.643" y2="475.784" gradientUnits="userSpaceOnUse">
<stop stop-color="#3F5FCA"/>
<stop offset="1" stop-color="#2E55BB" stop-opacity="0"/>
</linearGradient>
<linearGradient id="paint1_linear_1036_211" x1="482.999" y1="152.151" x2="458.1" y2="285.792" gradientUnits="userSpaceOnUse">
<stop stop-color="#3F5FCA"/>
<stop offset="1" stop-color="#2E55BB" stop-opacity="0"/>
</linearGradient>
<linearGradient id="paint2_linear_1036_211" x1="111.753" y1="221.952" x2="261.535" y2="355.671" gradientUnits="userSpaceOnUse">
<stop stop-color="#3F5FCA"/>
<stop offset="1" stop-color="#2E55BB" stop-opacity="0"/>
</linearGradient>
<linearGradient id="paint3_linear_1036_211" x1="509.893" y1="420.83" x2="380.909" y2="393.03" gradientUnits="userSpaceOnUse">
<stop stop-color="#3F5FCA"/>
<stop offset="1" stop-color="#2E55BB" stop-opacity="0"/>
</linearGradient>
<linearGradient id="paint4_linear_1036_211" x1="406.739" y1="309.511" x2="403.996" y2="414.1" gradientUnits="userSpaceOnUse">
<stop stop-color="#3F5FCA"/>
<stop offset="1" stop-color="#2E55BB" stop-opacity="0"/>
</linearGradient>
<linearGradient id="paint5_linear_1036_211" x1="322.733" y1="446.415" x2="300.434" y2="465.364" gradientUnits="userSpaceOnUse">
<stop stop-color="#EBD3C5" stop-opacity="0"/>
<stop offset="1" stop-color="#2263F9"/>
</linearGradient>
<linearGradient id="paint6_linear_1036_211" x1="267.941" y1="522.237" x2="317.567" y2="484.569" gradientUnits="userSpaceOnUse">
<stop stop-color="#8CA7FF"/>
<stop offset="1" stop-color="#A8BDFF" stop-opacity="0"/>
</linearGradient>
<linearGradient id="paint7_linear_1036_211" x1="470.894" y1="693.672" x2="470.511" y2="752.214" gradientUnits="userSpaceOnUse">
<stop stop-color="#3F5FCA"/>
<stop offset="1" stop-color="#122C8C" stop-opacity="0"/>
</linearGradient>
<linearGradient id="paint8_linear_1036_211" x1="412.83" y1="665.274" x2="411.911" y2="755.9" gradientUnits="userSpaceOnUse">
<stop stop-color="#3F5FCA"/>
<stop offset="1" stop-color="#122C8C" stop-opacity="0"/>
</linearGradient>
<linearGradient id="paint9_linear_1036_211" x1="383.087" y1="654.467" x2="381.915" y2="756.821" gradientUnits="userSpaceOnUse">
<stop stop-color="#3F5FCA"/>
<stop offset="1" stop-color="#122C8C" stop-opacity="0"/>
</linearGradient>
<linearGradient id="paint10_linear_1036_211" x1="300.074" y1="741.164" x2="302.785" y2="665.98" gradientUnits="userSpaceOnUse">
<stop stop-color="#A6BAFF"/>
<stop offset="1" stop-color="#A0B4FF" stop-opacity="0"/>
</linearGradient>
</defs>
</svg>
